<?xml version="1.0" encoding="UTF-8"?>
<svg width="249px" height="50px" viewBox="0 0 249 50" version="1.1" xmlns="http://www.w3.org/2000/svg" xmlns:xlink="http://www.w3.org/1999/xlink">
    <!-- Generator: Sketch 42 (36781) - http://www.bohemiancoding.com/sketch -->
    <title>MANH Logo</title>
    <desc>Created with Sketch.</desc>
    <defs>
        <polygon id="path-1" points="248.952796 39.4470284 248.952796 49.4931754 235.235374 49.4931754 235.235374 39.4470284"></polygon>
    </defs>
    <g id="Symbols" stroke="none" stroke-width="1" fill="none" fill-rule="evenodd">
        <g id="MANH-Logo">
            <path d="M29.9720474,29.88 L23.916981,29.88 L37.6639052,11.5826303 L37.6639052,19.4644834 L29.9720474,29.88 Z M37.6639052,29.88 L31.486109,29.88 L37.6639052,21.9261611 L37.6639052,29.88 Z M22.0182085,29.88 L15.9666825,29.88 L37.6639052,0.853208531 L37.6639052,8.73978199 L22.0182085,29.88 Z M14.0089052,29.88 L7.95147867,29.88 L21.7066635,11.5826303 L21.7066635,19.4644834 L14.0089052,29.88 Z M6.05742654,29.88 L0,29.88 L21.7066635,0.853208531 L21.7066635,8.73978199 L6.05742654,29.88 Z" id="Combined-Shape" fill="#FFFFFF"></path>
            <polyline id="Fill-6" fill="#FFFFFF" points="48.2800379 0.260800948 56.3164834 0.260800948 64.2266588 21.015128 72.2147204 0.260800948 80.1685592 0.260800948 80.1685592 29.88 75.1437156 29.88 75.1437156 5.27856398 75.061109 5.27856398 66.0640664 29.88 62.3798104 29.88 53.3874882 5.27856398 53.2978009 5.27856398 53.2978009 29.88 48.2800379 29.88 48.2800379 0.260800948"></polyline>
            <path d="M97.5466351,27.1209384 L97.4239052,27.1209384 C95.9995308,29.3772796 93.6594028,30.3827204 90.9817678,30.3827204 C87.2550284,30.3827204 83.6545592,28.3352559 83.6545592,24.3654171 C83.6545592,17.8300521 91.2732512,17.3709953 96.2910142,17.3709953 L97.5466351,17.3709953 L97.5466351,16.8281517 C97.5466351,14.3593934 95.6242607,13.0577488 92.9454455,13.0577488 C90.8531374,13.0577488 88.9295829,13.8991564 87.5913555,15.151237 L84.9562038,12.5172654 C87.1688815,10.2573839 90.3091137,9.29560664 93.4882891,9.29560664 C102.068758,9.29560664 102.068758,15.4887441 102.068758,18.3315924 L102.068758,29.88 L97.5466351,29.88 L97.5466351,27.1209384 Z M97.2563318,20.8853175 L96.2072275,20.8853175 C93.4469858,20.8853175 88.6758626,21.0965545 88.6758626,23.9818863 C88.6758626,25.8228341 90.5604739,26.6170379 92.192545,26.6170379 C95.6242607,26.6170379 97.2563318,24.825654 97.2563318,22.0158483 L97.2563318,20.8853175 L97.2563318,20.8853175 Z" id="Fill-7" fill="#FFFFFF"></path>
            <path d="M106.733673,9.79832701 L111.504796,9.79832701 L111.504796,13.0164455 L111.586223,13.0164455 C112.506697,11.0114645 114.388948,9.29560664 117.738057,9.29560664 C123.136991,9.29560664 125.061725,13.1073128 125.061725,17.2022417 L125.061725,29.88 L120.038062,29.88 L120.038062,19.7123033 C120.038062,17.4937251 119.874028,13.8118294 116.358526,13.8118294 C113.056621,13.8118294 111.758517,16.2440047 111.758517,18.9169194 L111.758517,29.88 L106.733673,29.88 L106.733673,9.79832701" id="Fill-8" fill="#FFFFFF"></path>
            <path d="M134.861232,12.599872 L134.946199,12.599872 C135.741583,10.9288578 137.747744,9.29560664 140.849033,9.29560664 C146.243246,9.29560664 148.166801,13.1073128 148.166801,17.2022417 L148.166801,29.88 L143.150218,29.88 L143.150218,19.7123033 C143.150218,17.4937251 142.976744,13.8118294 139.467142,13.8118294 C136.159336,13.8118294 134.861232,16.2440047 134.861232,18.9169194 L134.861232,29.88 L129.841109,29.88 L129.841109,0.260800948 L134.861232,0.260800948 L134.861232,12.599872" id="Fill-9" fill="#FFFFFF"></path>
            <path d="M165.608602,27.1209384 L165.482332,27.1209384 C164.060318,29.3772796 161.714289,30.3827204 159.035474,30.3827204 C155.312275,30.3827204 151.715346,28.3352559 151.715346,24.3654171 C151.715346,17.8300521 159.330498,17.3709953 164.350621,17.3709953 L165.608602,17.3709953 L165.608602,16.8281517 C165.608602,14.3593934 163.679147,13.0577488 161.006232,13.0577488 C158.911564,13.0577488 156.984469,13.8991564 155.643882,15.151237 L153.01345,12.5172654 C155.229668,10.2573839 158.36872,9.29560664 161.545536,9.29560664 C170.123645,9.29560664 170.123645,15.4887441 170.123645,18.3315924 L170.123645,29.88 L165.608602,29.88 L165.608602,27.1209384 Z M165.310038,20.8853175 L164.268014,20.8853175 C161.504232,20.8853175 156.736649,21.0965545 156.736649,23.9818863 C156.736649,25.8228341 158.620081,26.6170379 160.250972,26.6170379 C163.679147,26.6170379 165.310038,24.825654 165.310038,22.0158483 L165.310038,20.8853175 L165.310038,20.8853175 Z" id="Fill-10" fill="#FFFFFF"></path>
            <path d="M173.149408,14.06791 L180.324384,3.98281991 L180.324384,9.79832701 L186.590687,9.79832701 L183.544863,14.06791 L180.324384,14.06791 L180.324384,22.8513555 C180.324384,24.8575166 180.909711,26.120218 183.127109,26.120218 C184.00982,26.120218 185.224137,25.9514645 185.843687,25.4876872 L185.843687,29.7206872 C184.798123,30.2186872 183.043322,30.3827204 181.867948,30.3827204 C176.558701,30.3827204 175.30072,27.9965687 175.30072,23.2714692 L175.30072,14.06791 L173.149408,14.06791" id="Fill-11" fill="#FFFFFF"></path>
            <path d="M186.289763,14.06791 L193.493062,3.98281991 L193.493062,9.79832701 L199.012365,9.79832701 L199.012365,14.06791 L193.493062,14.06791 L193.493062,22.8513555 C193.493062,24.8575166 194.077209,26.120218 196.292246,26.120218 C197.173777,26.120218 198.385735,25.9514645 199.012365,25.4876872 L199.012365,29.7206872 C197.970341,30.2186872 196.212,30.3827204 195.041346,30.3827204 C189.725019,30.3827204 188.463498,27.9965687 188.463498,23.2714692 L188.463498,14.06791 L186.289763,14.06791" id="Fill-12" fill="#FFFFFF"></path>
            <path d="M215.377919,27.1209384 L215.25519,27.1209384 C213.827275,29.3772796 211.488327,30.3827204 208.809512,30.3827204 C205.086313,30.3827204 201.484664,28.3352559 201.484664,24.3654171 C201.484664,17.8300521 209.103355,17.3709953 214.122299,17.3709953 L215.377919,17.3709953 L215.377919,16.8281517 C215.377919,14.3593934 213.453185,13.0577488 210.77437,13.0577488 C208.683242,13.0577488 206.757327,13.8991564 205.413199,15.151237 L202.781588,12.5172654 C205.001346,10.2573839 208.138038,9.29560664 211.320754,9.29560664 C219.896502,9.29560664 219.896502,15.4887441 219.896502,18.3315924 L219.896502,29.88 L215.377919,29.88 L215.377919,27.1209384 Z M215.085256,20.8853175 L214.039692,20.8853175 C211.27827,20.8853175 206.507147,21.0965545 206.507147,23.9818863 C206.507147,25.8228341 208.385858,26.6170379 210.022649,26.6170379 C213.453185,26.6170379 215.085256,24.825654 215.085256,22.0158483 L215.085256,20.8853175 L215.085256,20.8853175 Z" id="Fill-13" fill="#FFFFFF"></path>
            <path d="M224.285275,9.79832701 L229.051678,9.79832701 L229.051678,13.0164455 L229.137825,13.0164455 C230.058299,11.0114645 231.94055,9.29560664 235.290839,9.29560664 C240.687412,9.29560664 242.616867,13.1073128 242.616867,17.2022417 L242.616867,29.88 L237.589664,29.88 L237.589664,19.7123033 C237.589664,17.4937251 237.42563,13.8118294 233.910128,13.8118294 C230.601142,13.8118294 229.305398,16.2440047 229.305398,18.9169194 L229.305398,29.88 L224.285275,29.88 L224.285275,9.79832701" id="Fill-14" fill="#FFFFFF"></path>
            <path d="M156.435725,34.8930427 L158.017052,34.8930427 L164.031995,49.0435592 L162.069498,49.0435592 L160.635682,45.567 L153.556294,45.567 L152.098877,49.0435592 L150.198924,49.0435592 L156.435725,34.8930427 Z M157.194526,37.0526161 L157.152043,37.0526161 L154.214787,44.0116351 L159.990171,44.0116351 L157.194526,37.0526161 L157.194526,37.0526161 Z" id="Fill-15" fill="#FFFFFF"></path>
            <path d="M165.83282,46.5842417 C166.448829,47.347763 167.125024,47.8398626 168.228412,47.8398626 C169.209071,47.8398626 170.288858,47.4303697 170.288858,46.4060474 C170.288858,45.405327 169.288137,45.1492464 168.287417,44.9262085 C166.509014,44.5285166 164.991412,44.1449858 164.991412,42.20609 C164.991412,40.3922844 166.752114,39.4470284 168.488033,39.4470284 C169.807379,39.4470284 171.027597,39.9497488 171.668389,41.1510853 L170.365564,42.0101943 C169.967872,41.346981 169.304659,40.8914645 168.385365,40.8914645 C167.527436,40.8914645 166.550318,41.3115782 166.550318,42.1895687 C166.550318,42.964891 167.670227,43.3141991 168.908147,43.5466777 C170.56736,43.8641232 171.965773,44.4695118 171.965773,46.3482227 C171.965773,48.4641327 170.088242,49.2819384 168.228412,49.2819384 C166.648265,49.2819384 165.509474,48.8641848 164.589,47.5436588 L165.83282,46.5842417" id="Fill-16" fill="#FFFFFF"></path>
            <path d="M174.344844,46.5842417 C174.969114,47.347763 175.642948,47.8398626 176.745156,47.8398626 C177.723455,47.8398626 178.800882,47.4303697 178.800882,46.4060474 C178.800882,45.405327 177.801341,45.1492464 176.805341,44.9262085 C175.026938,44.5285166 173.506976,44.1449858 173.506976,42.20609 C173.506976,40.3922844 175.264137,39.4470284 177.002417,39.4470284 C178.321763,39.4470284 179.543161,39.9497488 180.182773,41.1510853 L178.883488,42.0101943 C178.482256,41.346981 177.823763,40.8914645 176.899749,40.8914645 C176.04772,40.8914645 175.064701,41.3115782 175.064701,42.1895687 C175.064701,42.964891 176.184611,43.3141991 177.428431,43.5466777 C179.081744,43.8641232 180.483697,44.4695118 180.483697,46.3482227 C180.483697,48.4641327 178.606166,49.2819384 176.745156,49.2819384 C175.163829,49.2819384 174.027398,48.8641848 173.102204,47.5436588 L174.344844,46.5842417" id="Fill-17" fill="#FFFFFF"></path>
            <path d="M187.12173,39.4470284 C189.994081,39.4470284 192.114711,41.4425687 192.114711,44.3644834 C192.114711,47.2781374 189.994081,49.2819384 187.12173,49.2819384 C184.239938,49.2819384 182.120488,47.2781374 182.120488,44.3644834 C182.120488,41.4425687 184.239938,39.4470284 187.12173,39.4470284 Z M187.12173,47.8398626 C189.140872,47.8398626 190.438976,46.3234408 190.438976,44.3644834 C190.438976,42.4090664 189.140872,40.8914645 187.12173,40.8914645 C185.101408,40.8914645 183.800943,42.4090664 183.800943,44.3644834 C183.800943,46.3234408 185.101408,47.8398626 187.12173,47.8398626 L187.12173,47.8398626 Z" id="Fill-18" fill="#FFFFFF"></path>
            <path d="M201.19082,42.0231754 C200.534687,41.2242512 199.775886,40.8914645 198.836531,40.8914645 C196.734782,40.8914645 195.677417,42.4491896 195.677417,44.3644834 C195.677417,46.2880379 196.931858,47.8398626 198.836531,47.8398626 C199.852592,47.8398626 200.633815,47.4858341 201.209701,46.6798294 L202.370915,47.7855782 C201.470502,48.8205213 200.19128,49.2819384 198.836531,49.2819384 C195.929957,49.2819384 193.994602,47.2486351 193.994602,44.3644834 C193.994602,41.5298957 195.953559,39.4470284 198.836531,39.4470284 C200.213701,39.4470284 201.492924,39.9119858 202.4311,40.9268673 L201.19082,42.0231754" id="Fill-19" fill="#FFFFFF"></path>
            <path d="M205.089853,34.8930427 C205.729464,34.8930427 206.233365,35.4122844 206.233365,36.0282938 C206.233365,36.690327 205.748346,37.1706256 205.089853,37.1706256 C204.429,37.1706256 203.952242,36.690327 203.952242,36.0282938 C203.952242,35.4122844 204.449062,34.8930427 205.089853,34.8930427 Z M204.30863,49.0435592 L205.872256,49.0435592 L205.872256,39.6889479 L204.30863,39.6889479 L204.30863,49.0435592 Z" id="Fill-20" fill="#FFFFFF"></path>
            <path d="M208.447223,40.8914645 C209.40546,39.9119858 210.802692,39.4470284 212.159801,39.4470284 C214.920043,39.4470284 216.082436,40.7722749 216.082436,43.4086066 L216.082436,47.4303697 C216.082436,47.9614123 216.141441,48.5632607 216.219327,49.0435592 L214.720607,49.0435592 C214.620299,48.6281659 214.620299,48.0428389 214.620299,47.6404265 L214.583716,47.6404265 C213.960626,48.5998436 212.919782,49.2819384 211.502488,49.2819384 C209.607256,49.2819384 208.024749,48.3272417 208.024749,46.5075355 C208.024749,43.4086066 211.620498,43.2245118 213.919322,43.2245118 L214.525891,43.2245118 L214.525891,42.9460095 C214.525891,41.5912607 213.659701,40.8914645 212.202284,40.8914645 C211.199204,40.8914645 210.1619,41.2242512 209.421981,41.9087062 L208.447223,40.8914645 Z M212.959905,44.546218 C210.980886,44.546218 209.707564,45.0855213 209.707564,46.3482227 C209.707564,47.5259573 210.583194,47.9614123 211.762109,47.9614123 C213.561754,47.9614123 214.483408,46.6668483 214.525891,45.1492464 L214.525891,44.546218 L212.959905,44.546218 L212.959905,44.546218 Z" id="Fill-21" fill="#FFFFFF"></path>
            <path d="M223.242071,41.0047536 L220.481829,41.0047536 L220.481829,45.6850095 C220.481829,46.8816256 220.505431,47.8398626 221.883782,47.8398626 C222.341659,47.8398626 222.844379,47.7419147 223.263313,47.5259573 L223.323498,48.9479716 C222.783014,49.1851706 222.083218,49.2819384 221.506152,49.2819384 C219.286393,49.2819384 218.930005,48.0841422 218.930005,46.1452464 L218.930005,41.0047536 L217.646062,41.0047536 L220.481829,37.0278341 L220.481829,39.6889479 L223.242071,39.6889479 L223.242071,41.0047536" id="Fill-22" fill="#FFFFFF"></path>
            <path d="M233.518336,47.347763 C232.422028,48.7650569 231.099142,49.2819384 229.360863,49.2819384 C226.424787,49.2819384 224.621602,47.0881422 224.621602,44.3644834 C224.621602,41.4661706 226.663166,39.4470284 229.417507,39.4470284 C232.058559,39.4470284 233.859384,41.2502133 233.859384,44.346782 L233.859384,44.8471422 L226.302057,44.8471422 C226.424787,46.4662322 227.662706,47.8398626 229.360863,47.8398626 C230.70145,47.8398626 231.603043,47.3607441 232.338242,46.4249289 L233.518336,47.347763 Z M232.177749,43.5277962 C232.118744,41.9488294 231.081441,40.8914645 229.360863,40.8914645 C227.640284,40.8914645 226.502673,41.9488294 226.302057,43.5277962 L232.177749,43.5277962 L232.177749,43.5277962 Z" id="Fill-23" fill="#FFFFFF"></path>
            <mask id="mask-2" fill="white">
                <use xlink:href="#path-1"></use>
            </mask>
            <g id="Clip-25"></g>
            <path d="M236.473294,46.5842417 C237.096384,47.347763 237.777299,47.8398626 238.877147,47.8398626 C239.855445,47.8398626 240.934052,47.4303697 240.934052,46.4060474 C240.934052,45.405327 239.936872,45.1492464 238.938512,44.9262085 C237.157749,44.5285166 235.637787,44.1449858 235.637787,42.20609 C235.637787,40.3922844 237.397308,39.4470284 239.134408,39.4470284 C240.454934,39.4470284 241.676332,39.9497488 242.314763,41.1510853 L241.016659,42.0101943 C240.614246,41.346981 239.956934,40.8914645 239.03882,40.8914645 C238.178531,40.8914645 237.196692,41.3115782 237.196692,42.1895687 C237.196692,42.964891 238.317782,43.3141991 239.555701,43.5466777 C241.213735,43.8641232 242.616867,44.4695118 242.616867,46.3482227 C242.616867,48.4641327 240.733436,49.2819384 238.877147,49.2819384 C237.29464,49.2819384 236.159389,48.8641848 235.235374,47.5436588 L236.473294,46.5842417" id="Fill-24" fill="#FFFFFF" mask="url(#mask-2)"></path>
            <path d="M246.602047,44.7798768 C247.008,44.7798768 247.400972,44.8707441 247.780962,45.0796209 C248.160953,45.2861374 248.466597,45.5835213 248.671934,45.9635118 C248.885531,46.351763 248.99528,46.7482749 248.99528,47.1660284 C248.99528,47.5802417 248.897332,47.9743934 248.680194,48.355564 C248.466597,48.7426351 248.172754,49.0352986 247.790403,49.2453555 C247.410412,49.4506919 247.016261,49.563981 246.602047,49.563981 C246.191374,49.563981 245.787782,49.4506919 245.408972,49.2453555 C245.025441,49.0352986 244.728057,48.7426351 244.518,48.355564 C244.303223,47.9743934 244.197014,47.5802417 244.197014,47.1660284 C244.197014,46.7482749 244.303223,46.351763 244.5239,45.9635118 C244.742218,45.5835213 245.040782,45.2861374 245.417232,45.0796209 C245.806664,44.8707441 246.200815,44.7798768 246.602047,44.7798768 Z M246.602047,45.1728483 C246.269261,45.1728483 245.938834,45.255455 245.619028,45.4324692 C245.299223,45.6024028 245.047863,45.8443223 244.868488,46.164128 C244.690294,46.4792133 244.601787,46.8167204 244.601787,47.1660284 C244.601787,47.509436 244.690294,47.8398626 244.868488,48.1525877 C245.040782,48.4712133 245.281521,48.7202133 245.602507,48.8925071 C245.919953,49.0624408 246.25628,49.1580284 246.602047,49.1580284 C246.944275,49.1580284 247.278242,49.0624408 247.593327,48.8925071 C247.913133,48.7202133 248.151512,48.4712133 248.328526,48.1525877 C248.5079,47.8398626 248.597588,47.509436 248.597588,47.1660284 C248.597588,46.8167204 248.5079,46.4792133 248.328526,46.164128 C248.145611,45.8443223 247.900152,45.6024028 247.574445,45.4324692 C247.265261,45.255455 246.930114,45.1728483 246.602047,45.1728483 Z M245.545863,48.4948152 L245.545863,45.9233886 L246.436834,45.9233886 C246.735398,45.9233886 246.963156,45.9446303 247.090607,45.9859336 C247.229858,46.040218 247.333706,46.1181043 247.415133,46.2372938 C247.496559,46.3564834 247.542583,46.4792133 247.542583,46.612564 C247.542583,46.799019 247.470597,46.9689526 247.333706,47.1011232 C247.201536,47.2486351 247.022161,47.3312417 246.807384,47.347763 C246.893531,47.3808057 246.963156,47.4303697 247.016261,47.4752133 C247.117749,47.5861422 247.249919,47.7560758 247.400972,47.9885545 L247.718417,48.4948152 L247.215697,48.4948152 L246.983218,48.0841422 C246.807384,47.7678768 246.652791,47.5672607 246.546583,47.4858341 C246.465156,47.43509 246.355408,47.4032275 246.207896,47.4032275 L245.965976,47.4032275 L245.965976,48.4948152 L245.545863,48.4948152 Z M245.965976,47.0515592 L246.479318,47.0515592 C246.716517,47.0515592 246.893531,47.0102559 246.976137,46.9394502 C247.067005,46.8639242 247.117749,46.7730569 247.117749,46.6526872 C247.117749,46.5700806 247.090607,46.5075355 247.049303,46.4461706 C247.008,46.388346 246.944275,46.3376019 246.872289,46.3021991 C246.789682,46.2785972 246.646891,46.2679763 246.447455,46.2679763 L245.965976,46.2679763 L245.965976,47.0515592 L245.965976,47.0515592 Z" id="Fill-26" fill="#FFFFFF" mask="url(#mask-2)"></path>
        </g>
    </g>
</svg>
